#!OML:ASF E:\CV Data\Top Level 1\Subject 1\Session 1\player.ASF
:FULLY-SPECIFIED
:DEGREES
568
root 5.49813 17.7969 -19.9732 1.60279 21.1142 -5.36754
lowerback 2.86946 1.87763 4.56931
upperback -4.71212 2.96398 2.51682
thorax -6.43099 1.32156 -0.177511
lowerneck -0.179734 -12.9978 -17.9014
upperneck -17.0307 -16.0062 18.7846
head -1.84332 -7.86614 8.52417
rclavicle 5.41688e-015 2.50469e-014
rhumerus 80.2072 -6.00833 -57.351
rradius 18.1161
rwrist 31.6344
rhand 16.4914 -12.9295
rfingers 7.12502
rthumb 41.2536 -37.7647
lclavicle 5.41688e-015 2.50469e-014
lhumerus 78.4028 -2.96038 53.74
lradius 60.598
lwrist 29.8364
lhand -32.2353 24.5811
lfingers 7.12502
lthumb -5.47591 54.4903
rfemur -5.03179 -4.65245 25.6131
rtibia 23.7693
rfoot -17.841 -17.2519
rtoes 0.296054
lfemur -10.7359 -0.994296 -14.2607
ltibia 24.1368
lfoot -12.4666 -4.06028
ltoes -0.865282
569
root 5.4983 17.806 -19.9831 1.58009 21.2138 -5.44493
lowerback 2.71756 1.9407 4.61142
upperback -4.63729 3.04101 2.59404
thorax -6.26368 1.36421 -0.119858
lowerneck -0.224958 -13.0637 -17.9733
upperneck -17.0752 -16.0872 18.7732
head -1.83092 -7.89898 8.52236
rclavicle -2.72335e-014 -2.42517e-014
rhumerus 80.0243 -6.01384 -58.0014
rradius 17.805
rwrist 32.0681
rhand 16.3535 -12.785
rfingers 7.12502
rthumb 41.1242 -37.6618
lclavicle -2.72335e-014 -2.42517e-014
lhumerus 77.9082 -3.17384 53.6146
lradius 60.6422
lwrist 29.4271
lhand -32.1485 24.5946
lfingers 7.12502
lthumb -5.39209 54.506
rfemur -4.97994 -4.65574 25.6792
rtibia 23.582
rfoot -17.6868 -17.2955
rtoes 0.348216
lfemur -10.6855 -0.864616 -14.1745
ltibia 23.9219
lfoot -12.3802 -4.30636
ltoes -0.549228
570
root 5.49906 17.8144 -19.9928 1.59369 21.2685 -5.51166
lowerback 2.5709 2.00211 4.63766
upperback -4.57644 3.11623 2.6793
thorax -6.11588 1.40647 -0.0449397
lowerneck -0.333792 -13.1169 -18.0754
upperneck -17.0616 -16.1453 18.766
head -1.79255 -7.91715 8.51987
rclavicle 5.46658e-016 -6.36111e-015
rhumerus 79.9207 -6.00881 -58.8531
rradius 17.479
rwrist 32.6949
rhand 16.1867 -12.6194
rfingers 7.12502
rthumb 40.9675 -37.5462
lclavicle 5.46658e-016 -6.36111e-015
lhumerus 77.4361 -3.32068 53.4913
lradius 60.5887
lwrist 29.1298
lhand -31.9354 24.582
lfingers 7.12502
lthumb -5.18636 54.4986
rfemur -4.93725 -4.61987 25.7441
rtibia 23.3439
rfoot -17.5302 -17.3718
rtoes 0.431729
lfemur -10.6396 -0.735293 -14.1095
ltibia 23.6743
lfoot -12.2885 -4.4726
ltoes -0.304409
571
root 5.50021 17.8225 -20.0028 1.65314 21.2834 -5.55685
lowerback 2.40328 2.08269 4.64258
upperback -4.53952 3.21465 2.74827
thorax -5.98111 1.46034 0.0240524
lowerneck -0.369492 -13.1549 -18.1595
upperneck -17.0752 -16.192 18.7648
head -1.7764 -7.93372 8.52497
rclavicle 4.98204e-014 9.93923e-015
rhumerus 79.8193 -6.04192 -59.8179
rradius 17.1694
rwrist 33.418
rhand 15.9702 -12.4337
rfingers 7.12502
rthumb 40.7641 -37.4246
lclavicle 4.98204e-014 9.93923e-015
lhumerus 77.0075 -3.47012 53.3744
lradius 60.4654
lwrist 28.9769
lhand -31.6053 24.5372
lfingers 7.12502
lthumb -4.86762 54.4613
rfemur -4.91609 -4.54232 25.7969
rtibia 23.0651
rfoot -17.3765 -17.4808
rtoes 0.557099
lfemur -10.6123 -0.621708 -14.0753
ltibia 23.4045
lfoot -12.1882 -4.56512
ltoes -0.0943753
572
root 5.50126 17.8301 -20.0131 1.75927 21.282 -5.57376
lowerback 2.23958 2.16987 4.62664
upperback -4.53578 3.32154 2.79281
thorax -5.88341 1.51768 0.0784582
lowerneck -0.346309 -13.1802 -18.2097
upperneck -17.111 -16.2291 18.7616
head -1.78063 -7.94935 8.53146
rclavicle 3.57812e-015 -1.35174e-014
rhumerus 79.6926 -6.09657 -60.8158
rradius 16.9107
rwrist 34.1308
rhand 15.713 -12.2434
rfingers 7.12502
rthumb 40.5224 -37.3097
lclavicle 3.57812e-015 -1.35174e-014
lhumerus 76.6046 -3.62136 53.2439
lradius 60.3016
lwrist 28.9951
lhand -31.187 24.4701
lfingers 7.12502
lthumb -4.46375 54.4031
rfemur -4.91732 -4.41977 25.8333
rtibia 22.7529
rfoot -17.2333 -17.6372
rtoes 0.725967
lfemur -10.6127 -0.54149 -14.0752
ltibia 23.1233
lfoot -12.0825 -4.59714
ltoes 0.0859889
